<mxfile host="app.diagrams.net" agent="Mozilla/5.0 (Linux; Android 10; K) AppleWebKit/537.36 (KHTML, like Gecko) Chrome/129.0.0.0 Mobile Safari/537.36" version="24.7.17">
  <diagram name="PÃ¡gina-1" id="JPP9hn-kfOiiTAWXqcta">
    <mxGraphModel dx="486" dy="1340" grid="0" gridSize="10" guides="1" tooltips="1" connect="1" arrows="1" fold="1" page="0" pageScale="1" pageWidth="827" pageHeight="1169" math="0" shadow="0">
      <root>
        <mxCell id="0" />
        <mxCell id="1" parent="0" />
        <mxCell id="5kk9nWMmPY6nZ75icdCH-2" value="Saulo Santista da Rocha" style="ellipse;whiteSpace=wrap;html=1;fillColor=#d5e8d4;strokeColor=#1A3300;strokeWidth=1;fontColor=#1A3300;" vertex="1" parent="1">
          <mxGeometry x="-274" y="-519" width="123" height="80" as="geometry" />
        </mxCell>
      </root>
    </mxGraphModel>
  </diagram>
</mxfile>
